<svg xmlns="http://www.w3.org/2000/svg" width="533" height="537" fill="none" viewBox="0 0 533 537">
  <g class="logo-single">
    <path stroke="#fff" stroke-linecap="round" stroke-width="16" d="M62.975 285.778l-46 45c-15 18.5-8.5 35 0 45l29.343 29.091c1.77 1.755 2.656 2.633 3.765 3.002 1.11.37 2.402.191 4.989-.168 54.591-7.574 80.946 19.062 78.639 78.877-.091 2.373-.137 3.559.273 4.562.41 1.002 1.24 1.785 2.9 3.35l30.669 28.917c.471.443.706.665.98.861.275.197.536.335 1.059.611 10.208 5.397 16.41 5.295 26.563.091.622-.319.932-.478 1.25-.711.318-.232.585-.5 1.12-1.038l183.951-184.945" class="lower-ticket"/>
    <path stroke="#fff" stroke-linecap="round" stroke-width="16" d="M127.145 109.152s-65.757 41.063-50.324 116.122c21.106 102.648 137.341 83.731 138.88 83.476.047-.008.04-.007.087-.017 72.745-14.522 94.865-109.733 69.711-171.645-23.465-57.754-57.694-73.437-86.721-82.04-3.136-.93-6.258 1.435-6.344 4.705-1.389 52.636-10.228 78.516-48.225 103.793-1.923 1.279-4.502 1.037-6.084-.645-6.912-7.351-8.737-12.853-7.96-22.783" class="flame"/>
    <path fill="#fff" fill-rule="evenodd" d="M288.114 67.243l45.892-46.67c6.054-3.701 9.568-4.629 12.222-4.57 2.685.058 5.843 1.146 11.225 4.56l30.327 29.888c-9.346 29.577-4.486 57.624 12.623 76.128 17.331 18.744 45.504 25.857 78.812 16.708l32.142 31.695c4.099 5.833 5.097 9.003 5.094 11.276-.003 2.225-.969 5.243-5.048 10.78l-83.428 83.428-103.686-103.685a166.216 166.216 0 01-2.224 20.403l98.839 98.838c3.905 3.906 10.237 3.906 14.142 0l87.984-87.984c.343-.342.659-.709.944-1.092 4.874-6.533 8.468-13.113 8.477-20.669.009-7.498-3.522-14.208-8.36-20.998a10.119 10.119 0 00-1.121-1.316l-35.02-34.534c-2.714-2.675-6.592-3.471-9.979-2.438-30.53 9.311-53.093 2.49-65.82-11.274-12.845-13.893-17.527-36.833-8.077-63.542 1.256-3.548.456-7.682-2.402-10.498L368.235 8.725a10.015 10.015 0 00-1.598-1.28C360.269 3.337 353.898.166 346.579.005c-7.348-.16-14.222 2.732-21.639 7.361-.661.413-1.279.907-1.834 1.47l-45.891 46.67a126.41 126.41 0 0110.899 11.736z" class="upper-ticket" clip-rule="evenodd"/>
  </g>
</svg>
