<svg width="60" height="85" viewBox="0 0 60 85" fill="none" xmlns="http://www.w3.org/2000/svg">
<rect width="60" height="85" fill="#E5E4E4"/>
<path d="M27.7676 47.793C27.791 46.3984 27.9492 45.2969 28.2422 44.4883C28.5352 43.6797 29.1328 42.7832 30.0352 41.7988L32.3379 39.4258C33.3223 38.3125 33.8145 37.1172 33.8145 35.8398C33.8145 34.6094 33.4922 33.6484 32.8477 32.957C32.2031 32.2539 31.2656 31.9023 30.0352 31.9023C28.8398 31.9023 27.8789 32.2188 27.1523 32.8516C26.4258 33.4844 26.0625 34.334 26.0625 35.4004H22.8105C22.834 33.502 23.5078 31.9727 24.832 30.8125C26.168 29.6406 27.9023 29.0547 30.0352 29.0547C32.25 29.0547 33.9727 29.6523 35.2031 30.8477C36.4453 32.0312 37.0664 33.6602 37.0664 35.7344C37.0664 37.7852 36.1172 39.8066 34.2188 41.7988L32.3027 43.6973C31.4473 44.6465 31.0195 46.0117 31.0195 47.793H27.7676ZM27.627 53.3652C27.627 52.8379 27.7852 52.3984 28.1016 52.0469C28.4297 51.6836 28.9102 51.502 29.543 51.502C30.1758 51.502 30.6562 51.6836 30.9844 52.0469C31.3125 52.3984 31.4766 52.8379 31.4766 53.3652C31.4766 53.8926 31.3125 54.332 30.9844 54.6836C30.6562 55.0234 30.1758 55.1934 29.543 55.1934C28.9102 55.1934 28.4297 55.0234 28.1016 54.6836C27.7852 54.332 27.627 53.8926 27.627 53.3652Z" fill="#7A7A7A"/>
</svg>
